# This file uses centimeters as units for non-parametric coordinates.

mtllib Package.mtl
g default
v -3.204500 -3.204500 3.204500
v -1.993471 -3.322452 3.322452
v -0.664490 -3.322452 3.322452
v 0.664490 -3.322452 3.322452
v 1.993471 -3.322452 3.322452
v 3.204500 -3.204500 3.204500
v -3.322452 -1.993471 3.322452
v -2.143832 -2.143832 3.573054
v -0.719974 -2.159921 3.599869
v 0.719974 -2.159921 3.599869
v 2.143832 -2.143832 3.573054
v 3.322452 -1.993471 3.322452
v -3.322452 -0.664490 3.322452
v -2.159921 -0.719974 3.599869
v -0.735261 -0.735261 3.676307
v 0.735261 -0.735261 3.676307
v 2.159921 -0.719974 3.599869
v 3.322452 -0.664490 3.322452
v -3.322452 0.664490 3.322452
v -2.159921 0.719974 3.599869
v -0.735261 0.735261 3.676307
v 0.735261 0.735261 3.676307
v 2.159921 0.719974 3.599869
v 3.322452 0.664490 3.322452
v -3.322452 1.993471 3.322452
v -2.143832 2.143832 3.573054
v -0.719974 2.159921 3.599869
v 0.719974 2.159921 3.599869
v 2.143832 2.143832 3.573054
v 3.322452 1.993471 3.322452
v -3.204500 3.204500 3.204500
v -1.993471 3.322452 3.322452
v -0.664490 3.322452 3.322452
v 0.664490 3.322452 3.322452
v 1.993471 3.322452 3.322452
v 3.204500 3.204500 3.204500
v -3.322452 3.322452 1.993471
v -2.143832 3.573054 2.143832
v -0.719974 3.599869 2.159921
v 0.719974 3.599869 2.159921
v 2.143832 3.573054 2.143832
v 3.322452 3.322452 1.993471
v -3.322452 3.322452 0.664490
v -2.159921 3.599869 0.719974
v -0.735261 3.676307 0.735261
v 0.735261 3.676307 0.735261
v 2.159921 3.599869 0.719974
v 3.322452 3.322452 0.664490
v -3.322452 3.322452 -0.664490
v -2.159921 3.599869 -0.719974
v -0.735261 3.676307 -0.735261
v 0.735261 3.676307 -0.735261
v 2.159921 3.599869 -0.719974
v 3.322452 3.322452 -0.664490
v -3.322452 3.322452 -1.993471
v -2.143832 3.573054 -2.143832
v -0.719974 3.599869 -2.159921
v 0.719974 3.599869 -2.159921
v 2.143832 3.573054 -2.143832
v 3.322452 3.322452 -1.993471
v -3.204500 3.204500 -3.204500
v -1.993471 3.322452 -3.322452
v -0.664490 3.322452 -3.322452
v 0.664490 3.322452 -3.322452
v 1.993471 3.322452 -3.322452
v 3.204500 3.204500 -3.204500
v -3.322452 1.993471 -3.322452
v -2.143832 2.143832 -3.573054
v -0.719974 2.159921 -3.599869
v 0.719974 2.159921 -3.599869
v 2.143832 2.143832 -3.573054
v 3.322452 1.993471 -3.322452
v -3.322452 0.664490 -3.322452
v -2.159921 0.719974 -3.599869
v -0.735261 0.735261 -3.676307
v 0.735261 0.735261 -3.676307
v 2.159921 0.719974 -3.599869
v 3.322452 0.664490 -3.322452
v -3.322452 -0.664490 -3.322452
v -2.159921 -0.719974 -3.599869
v -0.735261 -0.735261 -3.676307
v 0.735261 -0.735261 -3.676307
v 2.159921 -0.719974 -3.599869
v 3.322452 -0.664490 -3.322452
v -3.322452 -1.993471 -3.322452
v -2.143832 -2.143832 -3.573054
v -0.719974 -2.159921 -3.599869
v 0.719974 -2.159921 -3.599869
v 2.143832 -2.143832 -3.573054
v 3.322452 -1.993471 -3.322452
v -3.204500 -3.204500 -3.204500
v -1.993471 -3.322452 -3.322452
v -0.664490 -3.322452 -3.322452
v 0.664490 -3.322452 -3.322452
v 1.993471 -3.322452 -3.322452
v 3.204500 -3.204500 -3.204500
v -3.322452 -3.322452 -1.993471
v -2.143832 -3.573054 -2.143832
v -0.719974 -3.599869 -2.159921
v 0.719974 -3.599869 -2.159921
v 2.143832 -3.573054 -2.143832
v 3.322452 -3.322452 -1.993471
v -3.322452 -3.322452 -0.664490
v -2.159921 -3.599869 -0.719974
v -0.735261 -3.676307 -0.735261
v 0.735261 -3.676307 -0.735261
v 2.159921 -3.599869 -0.719974
v 3.322452 -3.322452 -0.664490
v -3.322452 -3.322452 0.664490
v -2.159921 -3.599869 0.719974
v -0.735261 -3.676307 0.735261
v 0.735261 -3.676307 0.735261
v 2.159921 -3.599869 0.719974
v 3.322452 -3.322452 0.664490
v -3.322452 -3.322452 1.993471
v -2.143832 -3.573054 2.143832
v -0.719974 -3.599869 2.159921
v 0.719974 -3.599869 2.159921
v 2.143832 -3.573054 2.143832
v 3.322452 -3.322452 1.993471
v 3.573054 -2.143832 -2.143832
v 3.599869 -2.159921 -0.719974
v 3.599869 -2.159921 0.719974
v 3.573054 -2.143832 2.143832
v 3.599869 -0.719974 -2.159921
v 3.676307 -0.735261 -0.735261
v 3.676307 -0.735261 0.735261
v 3.599869 -0.719974 2.159921
v 3.599869 0.719974 -2.159921
v 3.676307 0.735261 -0.735261
v 3.676307 0.735261 0.735261
v 3.599869 0.719974 2.159921
v 3.573054 2.143832 -2.143832
v 3.599869 2.159921 -0.719974
v 3.599869 2.159921 0.719974
v 3.573054 2.143832 2.143832
v -3.573054 -2.143832 -2.143832
v -3.599869 -2.159921 -0.719974
v -3.599869 -2.159921 0.719974
v -3.573054 -2.143832 2.143832
v -3.599869 -0.719974 -2.159921
v -3.676307 -0.735261 -0.735261
v -3.676307 -0.735261 0.735261
v -3.599869 -0.719974 2.159921
v -3.599869 0.719974 -2.159921
v -3.676307 0.735261 -0.735261
v -3.676307 0.735261 0.735261
v -3.599869 0.719974 2.159921
v -3.573054 2.143832 -2.143832
v -3.599869 2.159921 -0.719974
v -3.599869 2.159921 0.719974
v -3.573054 2.143832 2.143832
vt 0.495623 0.249408
vt 0.449142 0.250678
vt 0.454792 0.206719
vt 0.498647 0.202693
vt 0.400121 0.250767
vt 0.402340 0.206426
vt 0.350985 0.250406
vt 0.349370 0.206056
vt 0.301978 0.249753
vt 0.296911 0.205771
vt 0.255500 0.247934
vt 0.253089 0.201251
vt 0.456190 0.153942
vt 0.500492 0.153556
vt 0.403365 0.153291
vt 0.349002 0.152983
vt 0.296200 0.153024
vt 0.251899 0.152151
vt 0.457159 0.100500
vt 0.501721 0.104319
vt 0.403943 0.098425
vt 0.349060 0.098091
vt 0.295766 0.099685
vt 0.251138 0.103008
vt 0.458063 0.047293
vt 0.502733 0.055411
vt 0.404164 0.044876
vt 0.349327 0.044669
vt 0.295417 0.046546
vt 0.250704 0.054134
vt 0.447053 0.999600
vt 0.493184 0.995045
vt 0.396449 1.000000
vt 0.345755 0.999895
vt 0.295105 0.999075
vt 0.250315 0.008466
vt 0.452152 0.954319
vt 0.551779 0.005285
vt 0.398453 0.955229
vt 0.343993 0.955041
vt 0.290282 0.953717
vt 0.202314 0.003373
vt 0.453042 0.900947
vt 0.603275 0.006398
vt 0.399199 0.901854
vt 0.343668 0.901621
vt 0.289806 0.900277
vt 0.150928 0.003718
vt 0.453138 0.846942
vt 0.654233 0.008100
vt 0.399348 0.847004
vt 0.343969 0.846774
vt 0.290226 0.846137
vt 0.100190 0.004909
vt 0.452078 0.793755
vt 0.704839 0.010414
vt 0.398780 0.793883
vt 0.345125 0.793557
vt 0.291856 0.792879
vt 0.049700 0.006328
vt 0.445692 0.749413
vt 0.491364 0.749474
vt 0.396802 0.749290
vt 0.347620 0.748945
vt 0.298725 0.748550
vt 0.003704 0.011584
vt 0.452730 0.705066
vt 0.753767 0.062845
vt 0.399364 0.704730
vt 0.345602 0.704380
vt 0.292200 0.704094
vt 0.000000 0.057836
vt 0.454516 0.651795
vt 0.752448 0.113617
vt 0.400626 0.651698
vt 0.345051 0.651394
vt 0.291096 0.650791
vt 0.000535 0.108544
vt 0.454953 0.597673
vt 0.750356 0.164435
vt 0.400957 0.597161
vt 0.345328 0.596849
vt 0.291405 0.596636
vt 0.001606 0.159366
vt 0.454000 0.544397
vt 0.747704 0.215111
vt 0.400474 0.544218
vt 0.346553 0.543838
vt 0.293066 0.543331
vt 0.003461 0.210112
vt 0.447616 0.499984
vt 0.493384 0.500206
vt 0.398522 0.499723
vt 0.349107 0.499339
vt 0.300010 0.498982
vt 0.009349 0.256178
vt 0.454684 0.455622
vt 0.694843 0.263348
vt 0.401125 0.455240
vt 0.347116 0.454858
vt 0.293512 0.454534
vt 0.055581 0.259310
vt 0.456499 0.402300
vt 0.644441 0.261558
vt 0.402428 0.402296
vt 0.346596 0.401972
vt 0.292439 0.401223
vt 0.106141 0.258395
vt 0.456983 0.348127
vt 0.593883 0.259583
vt 0.402779 0.347871
vt 0.346898 0.347570
vt 0.292774 0.347047
vt 0.156933 0.256876
vt 0.455995 0.294832
vt 0.542828 0.256866
vt 0.402255 0.295098
vt 0.348226 0.294737
vt 0.294530 0.293782
vt 0.208112 0.254858
vt 0.048906 0.214022
vt 0.102319 0.213453
vt 0.156375 0.212002
vt 0.209395 0.209343
vt 0.046473 0.160229
vt 0.099838 0.159480
vt 0.154551 0.158064
vt 0.207547 0.155741
vt 0.045253 0.105646
vt 0.098585 0.103804
vt 0.153404 0.102502
vt 0.206510 0.101936
vt 0.045190 0.051840
vt 0.098583 0.049857
vt 0.152675 0.048620
vt 0.206055 0.048571
vt 0.702248 0.218200
vt 0.648922 0.216777
vt 0.595051 0.214594
vt 0.542168 0.211298
vt 0.705558 0.164457
vt 0.652263 0.162862
vt 0.597575 0.160602
vt 0.544737 0.157650
vt 0.707717 0.109875
vt 0.654377 0.107177
vt 0.599599 0.105013
vt 0.546397 0.103781
vt 0.708638 0.056033
vt 0.655211 0.053178
vt 0.600981 0.051167
vt 0.547506 0.050415
vt 0.249028 0.296061
vt 0.501494 0.297732
vt 0.247891 0.347814
vt 0.502020 0.349568
vt 0.247406 0.399239
vt 0.501380 0.400979
vt 0.248111 0.450844
vt 0.500088 0.452527
vt 0.254241 0.498630
vt 0.741056 0.261047
vt 0.247707 0.546279
vt 0.499354 0.547916
vt 0.246567 0.597739
vt 0.499930 0.599390
vt 0.246124 0.648979
vt 0.499356 0.650591
vt 0.246862 0.700448
vt 0.498075 0.701968
vt 0.253053 0.748107
vt 0.750807 0.016495
vt 0.246583 0.795548
vt 0.497343 0.796898
vt 0.245409 0.846702
vt 0.498052 0.847977
vt 0.244847 0.897479
vt 0.497928 0.898566
vt 0.244912 0.948024
vt 0.497535 0.948989
vt 0.248979 0.994169
vt 0.503599 0.009724
vt 0.298530 0.001252
vt 0.350796 0.000001
vt 0.402956 0.000000
vt 0.455326 0.001903
vn -0.168719 -0.168719 0.971117
vn -0.076737 -0.199871 0.976813
vn -0.105222 -0.105222 0.988866
vn -0.199871 -0.076737 0.976813
vn -0.005230 -0.226687 0.973954
vn -0.012442 -0.126795 0.991851
vn 0.005230 -0.226687 0.973954
vn 0.012442 -0.126795 0.991851
vn 0.076737 -0.199871 0.976813
vn 0.105222 -0.105222 0.988866
vn 0.168719 -0.168719 0.971117
vn 0.199871 -0.076737 0.976813
vn -0.126795 -0.012442 0.991851
vn -0.226687 -0.005231 0.973954
vn -0.022274 -0.022274 0.999504
vn 0.022274 -0.022274 0.999504
vn 0.126795 -0.012442 0.991851
vn 0.226687 -0.005231 0.973954
vn -0.126795 0.012442 0.991851
vn -0.226687 0.005231 0.973954
vn -0.022274 0.022274 0.999504
vn 0.022274 0.022274 0.999504
vn 0.126795 0.012442 0.991851
vn 0.226687 0.005231 0.973954
vn -0.105222 0.105222 0.988866
vn -0.199871 0.076737 0.976813
vn -0.012442 0.126795 0.991851
vn 0.012442 0.126795 0.991851
vn 0.105222 0.105222 0.988866
vn 0.199871 0.076737 0.976813
vn -0.076737 0.199871 0.976813
vn -0.168719 0.168719 0.971117
vn -0.005230 0.226687 0.973954
vn 0.005230 0.226687 0.973954
vn 0.076737 0.199871 0.976813
vn 0.168719 0.168719 0.971117
vn -0.168719 0.971117 0.168719
vn -0.076737 0.976813 0.199871
vn -0.105222 0.988866 0.105222
vn -0.199871 0.976813 0.076737
vn -0.005231 0.973954 0.226687
vn -0.012442 0.991851 0.126795
vn 0.005231 0.973954 0.226687
vn 0.012442 0.991851 0.126795
vn 0.076737 0.976813 0.199871
vn 0.105222 0.988866 0.105222
vn 0.168719 0.971117 0.168719
vn 0.199871 0.976813 0.076737
vn -0.126795 0.991851 0.012442
vn -0.226687 0.973954 0.005230
vn -0.022274 0.999504 0.022274
vn 0.022274 0.999504 0.022274
vn 0.126795 0.991851 0.012442
vn 0.226687 0.973954 0.005231
vn -0.126795 0.991851 -0.012442
vn -0.226687 0.973954 -0.005230
vn -0.022274 0.999504 -0.022274
vn 0.022274 0.999504 -0.022274
vn 0.126795 0.991851 -0.012442
vn 0.226687 0.973954 -0.005231
vn -0.105222 0.988866 -0.105222
vn -0.199871 0.976813 -0.076737
vn -0.012442 0.991851 -0.126795
vn 0.012442 0.991851 -0.126795
vn 0.105222 0.988866 -0.105222
vn 0.199871 0.976813 -0.076737
vn -0.076737 0.976813 -0.199871
vn -0.168719 0.971117 -0.168719
vn -0.005231 0.973954 -0.226687
vn 0.005231 0.973954 -0.226687
vn 0.076737 0.976813 -0.199871
vn 0.168719 0.971117 -0.168719
vn -0.168719 0.168719 -0.971117
vn -0.076737 0.199871 -0.976813
vn -0.105222 0.105222 -0.988866
vn -0.199871 0.076737 -0.976813
vn -0.005230 0.226687 -0.973954
vn -0.012442 0.126795 -0.991851
vn 0.005230 0.226687 -0.973954
vn 0.012442 0.126795 -0.991851
vn 0.076737 0.199871 -0.976813
vn 0.105222 0.105222 -0.988866
vn 0.168719 0.168719 -0.971117
vn 0.199871 0.076737 -0.976813
vn -0.126795 0.012442 -0.991851
vn -0.226687 0.005231 -0.973954
vn -0.022274 0.022274 -0.999504
vn 0.022274 0.022274 -0.999504
vn 0.126795 0.012442 -0.991851
vn 0.226687 0.005231 -0.973954
vn -0.126795 -0.012442 -0.991851
vn -0.226687 -0.005231 -0.973954
vn -0.022274 -0.022274 -0.999504
vn 0.022274 -0.022274 -0.999504
vn 0.126795 -0.012442 -0.991851
vn 0.226687 -0.005231 -0.973954
vn -0.105222 -0.105222 -0.988866
vn -0.199871 -0.076737 -0.976813
vn -0.012442 -0.126795 -0.991851
vn 0.012442 -0.126795 -0.991851
vn 0.105222 -0.105222 -0.988866
vn 0.199871 -0.076737 -0.976813
vn -0.076737 -0.199871 -0.976813
vn -0.168719 -0.168719 -0.971117
vn -0.005230 -0.226687 -0.973954
vn 0.005230 -0.226687 -0.973954
vn 0.076737 -0.199871 -0.976813
vn 0.168719 -0.168719 -0.971117
vn -0.168719 -0.971117 -0.168719
vn -0.076737 -0.976813 -0.199871
vn -0.105222 -0.988866 -0.105222
vn -0.199871 -0.976813 -0.076737
vn -0.005231 -0.973954 -0.226687
vn -0.012442 -0.991851 -0.126795
vn 0.005231 -0.973954 -0.226687
vn 0.012442 -0.991851 -0.126795
vn 0.076737 -0.976813 -0.199871
vn 0.105222 -0.988866 -0.105222
vn 0.168719 -0.971117 -0.168719
vn 0.199871 -0.976813 -0.076737
vn -0.126795 -0.991851 -0.012442
vn -0.226687 -0.973954 -0.005230
vn -0.022274 -0.999504 -0.022274
vn 0.022274 -0.999504 -0.022274
vn 0.126795 -0.991851 -0.012442
vn 0.226687 -0.973954 -0.005231
vn -0.126795 -0.991851 0.012442
vn -0.226687 -0.973954 0.005230
vn -0.022274 -0.999504 0.022274
vn 0.022274 -0.999504 0.022274
vn 0.126795 -0.991851 0.012442
vn 0.226687 -0.973954 0.005231
vn -0.105222 -0.988866 0.105222
vn -0.199871 -0.976813 0.076737
vn -0.012442 -0.991851 0.126795
vn 0.012442 -0.991851 0.126795
vn 0.105222 -0.988866 0.105222
vn 0.199871 -0.976813 0.076737
vn -0.076737 -0.976813 0.199871
vn -0.168719 -0.971117 0.168719
vn -0.005231 -0.973954 0.226687
vn 0.005231 -0.973954 0.226687
vn 0.076737 -0.976813 0.199871
vn 0.168719 -0.971117 0.168719
vn 0.976813 -0.199871 -0.076737
vn 0.971117 -0.168719 -0.168719
vn 0.976813 -0.076737 -0.199871
vn 0.988866 -0.105222 -0.105222
vn 0.973954 -0.226687 -0.005231
vn 0.991851 -0.126795 -0.012442
vn 0.973954 -0.226687 0.005231
vn 0.991851 -0.126795 0.012442
vn 0.976813 -0.199871 0.076737
vn 0.988866 -0.105222 0.105222
vn 0.971117 -0.168719 0.168719
vn 0.976813 -0.076737 0.199871
vn 0.973954 -0.005231 -0.226687
vn 0.991851 -0.012442 -0.126795
vn 0.999504 -0.022274 -0.022274
vn 0.999504 -0.022274 0.022274
vn 0.991851 -0.012442 0.126795
vn 0.973954 -0.005230 0.226687
vn 0.973954 0.005231 -0.226687
vn 0.991851 0.012442 -0.126795
vn 0.999504 0.022274 -0.022274
vn 0.999504 0.022274 0.022274
vn 0.991851 0.012442 0.126795
vn 0.973954 0.005230 0.226687
vn 0.976813 0.076737 -0.199871
vn 0.988866 0.105222 -0.105222
vn 0.991851 0.126795 -0.012442
vn 0.991851 0.126795 0.012442
vn 0.988866 0.105222 0.105222
vn 0.976813 0.076737 0.199871
vn 0.971117 0.168719 -0.168719
vn 0.976813 0.199871 -0.076737
vn 0.973954 0.226687 -0.005231
vn 0.973954 0.226687 0.005231
vn 0.976813 0.199871 0.076737
vn 0.971117 0.168719 0.168719
vn -0.971117 -0.168719 -0.168719
vn -0.976813 -0.199871 -0.076737
vn -0.988866 -0.105222 -0.105222
vn -0.976813 -0.076737 -0.199871
vn -0.973954 -0.226687 -0.005231
vn -0.991851 -0.126795 -0.012442
vn -0.973954 -0.226687 0.005231
vn -0.991851 -0.126795 0.012442
vn -0.976813 -0.199871 0.076737
vn -0.988866 -0.105222 0.105222
vn -0.971117 -0.168719 0.168719
vn -0.976813 -0.076737 0.199871
vn -0.991851 -0.012442 -0.126795
vn -0.973954 -0.005230 -0.226687
vn -0.999504 -0.022274 -0.022274
vn -0.999504 -0.022274 0.022274
vn -0.991851 -0.012442 0.126795
vn -0.973954 -0.005231 0.226687
vn -0.991851 0.012442 -0.126795
vn -0.973954 0.005230 -0.226687
vn -0.999504 0.022274 -0.022274
vn -0.999504 0.022274 0.022274
vn -0.991851 0.012442 0.126795
vn -0.973954 0.005231 0.226687
vn -0.988866 0.105222 -0.105222
vn -0.976813 0.076737 -0.199871
vn -0.991851 0.126795 -0.012442
vn -0.991851 0.126795 0.012442
vn -0.988866 0.105222 0.105222
vn -0.976813 0.076737 0.199871
vn -0.976813 0.199871 -0.076737
vn -0.971117 0.168719 -0.168719
vn -0.973954 0.226687 -0.005231
vn -0.973954 0.226687 0.005231
vn -0.976813 0.199871 0.076737
vn -0.971117 0.168719 0.168719
s 1
g pCube1
usemtl unwrapChekcerShaderSG
f 1/1/1 2/2/2 8/3/3 7/4/4
f 2/2/2 3/5/5 9/6/6 8/3/3
f 3/5/5 4/7/7 10/8/8 9/6/6
f 4/7/7 5/9/9 11/10/10 10/8/8
f 5/9/9 6/11/11 12/12/12 11/10/10
f 7/4/4 8/3/3 14/13/13 13/14/14
f 8/3/3 9/6/6 15/15/15 14/13/13
f 9/6/6 10/8/8 16/16/16 15/15/15
f 10/8/8 11/10/10 17/17/17 16/16/16
f 11/10/10 12/12/12 18/18/18 17/17/17
f 13/14/14 14/13/13 20/19/19 19/20/20
f 14/13/13 15/15/15 21/21/21 20/19/19
f 15/15/15 16/16/16 22/22/22 21/21/21
f 16/16/16 17/17/17 23/23/23 22/22/22
f 17/17/17 18/18/18 24/24/24 23/23/23
f 19/20/20 20/19/19 26/25/25 25/26/26
f 20/19/19 21/21/21 27/27/27 26/25/25
f 21/21/21 22/22/22 28/28/28 27/27/27
f 22/22/22 23/23/23 29/29/29 28/28/28
f 23/23/23 24/24/24 30/30/30 29/29/29
f 25/26/26 26/25/25 32/186/31 31/182/32
f 26/25/25 27/27/27 33/185/33 32/186/31
f 27/27/27 28/28/28 34/184/34 33/185/33
f 28/28/28 29/29/29 35/183/35 34/184/34
f 29/29/29 30/30/30 36/36/36 35/183/35
s 2
f 31/32/37 32/31/38 38/37/39 37/180/40
f 32/31/38 33/33/41 39/39/42 38/37/39
f 33/33/41 34/34/43 40/40/44 39/39/42
f 34/34/43 35/35/45 41/41/46 40/40/44
f 35/35/45 36/181/47 42/179/48 41/41/46
f 37/180/40 38/37/39 44/43/49 43/178/50
f 38/37/39 39/39/42 45/45/51 44/43/49
f 39/39/42 40/40/44 46/46/52 45/45/51
f 40/40/44 41/41/46 47/47/53 46/46/52
f 41/41/46 42/179/48 48/177/54 47/47/53
f 43/178/50 44/43/49 50/49/55 49/176/56
f 44/43/49 45/45/51 51/51/57 50/49/55
f 45/45/51 46/46/52 52/52/58 51/51/57
f 46/46/52 47/47/53 53/53/59 52/52/58
f 47/47/53 48/177/54 54/175/60 53/53/59
f 49/176/56 50/49/55 56/55/61 55/174/62
f 50/49/55 51/51/57 57/57/63 56/55/61
f 51/51/57 52/52/58 58/58/64 57/57/63
f 52/52/58 53/53/59 59/59/65 58/58/64
f 53/53/59 54/175/60 60/173/66 59/59/65
f 55/174/62 56/55/61 62/61/67 61/62/68
f 56/55/61 57/57/63 63/63/69 62/61/67
f 57/57/63 58/58/64 64/64/70 63/63/69
f 58/58/64 59/59/65 65/65/71 64/64/70
f 59/59/65 60/173/66 66/171/72 65/65/71
s 3
f 61/62/73 62/61/74 68/67/75 67/170/76
f 62/61/74 63/63/77 69/69/78 68/67/75
f 63/63/77 64/64/79 70/70/80 69/69/78
f 64/64/79 65/65/81 71/71/82 70/70/80
f 65/65/81 66/171/83 72/169/84 71/71/82
f 67/170/76 68/67/75 74/73/85 73/168/86
f 68/67/75 69/69/78 75/75/87 74/73/85
f 69/69/78 70/70/80 76/76/88 75/75/87
f 70/70/80 71/71/82 77/77/89 76/76/88
f 71/71/82 72/169/84 78/167/90 77/77/89
f 73/168/86 74/73/85 80/79/91 79/166/92
f 74/73/85 75/75/87 81/81/93 80/79/91
f 75/75/87 76/76/88 82/82/94 81/81/93
f 76/76/88 77/77/89 83/83/95 82/82/94
f 77/77/89 78/167/90 84/165/96 83/83/95
f 79/166/92 80/79/91 86/85/97 85/164/98
f 80/79/91 81/81/93 87/87/99 86/85/97
f 81/81/93 82/82/94 88/88/100 87/87/99
f 82/82/94 83/83/95 89/89/101 88/88/100
f 83/83/95 84/165/96 90/163/102 89/89/101
f 85/164/98 86/85/97 92/91/103 91/92/104
f 86/85/97 87/87/99 93/93/105 92/91/103
f 87/87/99 88/88/100 94/94/106 93/93/105
f 88/88/100 89/89/101 95/95/107 94/94/106
f 89/89/101 90/163/102 96/161/108 95/95/107
s 4
f 91/92/109 92/91/110 98/97/111 97/160/112
f 92/91/110 93/93/113 99/99/114 98/97/111
f 93/93/113 94/94/115 100/100/116 99/99/114
f 94/94/115 95/95/117 101/101/118 100/100/116
f 95/95/117 96/161/119 102/159/120 101/101/118
f 97/160/112 98/97/111 104/103/121 103/158/122
f 98/97/111 99/99/114 105/105/123 104/103/121
f 99/99/114 100/100/116 106/106/124 105/105/123
f 100/100/116 101/101/118 107/107/125 106/106/124
f 101/101/118 102/159/120 108/157/126 107/107/125
f 103/158/122 104/103/121 110/109/127 109/156/128
f 104/103/121 105/105/123 111/111/129 110/109/127
f 105/105/123 106/106/124 112/112/130 111/111/129
f 106/106/124 107/107/125 113/113/131 112/112/130
f 107/107/125 108/157/126 114/155/132 113/113/131
f 109/156/128 110/109/127 116/115/133 115/154/134
f 110/109/127 111/111/129 117/117/135 116/115/133
f 111/111/129 112/112/130 118/118/136 117/117/135
f 112/112/130 113/113/131 119/119/137 118/118/136
f 113/113/131 114/155/132 120/153/138 119/119/137
f 115/154/134 116/115/133 2/2/139 1/1/140
f 116/115/133 117/117/135 3/5/141 2/2/139
f 117/117/135 118/118/136 4/7/142 3/5/141
f 118/118/136 119/119/137 5/9/143 4/7/142
f 119/119/137 120/153/138 6/11/144 5/9/143
s 5
f 102/102/145 96/96/146 90/90/147 121/121/148
f 108/108/149 102/102/145 121/121/148 122/122/150
f 114/114/151 108/108/149 122/122/150 123/123/152
f 120/120/153 114/114/151 123/123/152 124/124/154
f 6/11/155 120/120/153 124/124/154 12/12/156
f 121/121/148 90/90/147 84/84/157 125/125/158
f 122/122/150 121/121/148 125/125/158 126/126/159
f 123/123/152 122/122/150 126/126/159 127/127/160
f 124/124/154 123/123/152 127/127/160 128/128/161
f 12/12/156 124/124/154 128/128/161 18/18/162
f 125/125/158 84/84/157 78/78/163 129/129/164
f 126/126/159 125/125/158 129/129/164 130/130/165
f 127/127/160 126/126/159 130/130/165 131/131/166
f 128/128/161 127/127/160 131/131/166 132/132/167
f 18/18/162 128/128/161 132/132/167 24/24/168
f 129/129/164 78/78/163 72/72/169 133/133/170
f 130/130/165 129/129/164 133/133/170 134/134/171
f 131/131/166 130/130/165 134/134/171 135/135/172
f 132/132/167 131/131/166 135/135/172 136/136/173
f 24/24/168 132/132/167 136/136/173 30/30/174
f 133/133/170 72/72/169 66/66/175 60/60/176
f 134/134/171 133/133/170 60/60/176 54/54/177
f 135/135/172 134/134/171 54/54/177 48/48/178
f 136/136/173 135/135/172 48/48/178 42/42/179
f 30/30/174 136/136/173 42/42/179 36/36/180
s 6
f 91/162/181 97/98/182 137/137/183 85/86/184
f 97/98/182 103/104/185 138/138/186 137/137/183
f 103/104/185 109/110/187 139/139/188 138/138/186
f 109/110/187 115/116/189 140/140/190 139/139/188
f 115/116/189 1/1/191 7/4/192 140/140/190
f 85/86/184 137/137/183 141/141/193 79/80/194
f 137/137/183 138/138/186 142/142/195 141/141/193
f 138/138/186 139/139/188 143/143/196 142/142/195
f 139/139/188 140/140/190 144/144/197 143/143/196
f 140/140/190 7/4/192 13/14/198 144/144/197
f 79/80/194 141/141/193 145/145/199 73/74/200
f 141/141/193 142/142/195 146/146/201 145/145/199
f 142/142/195 143/143/196 147/147/202 146/146/201
f 143/143/196 144/144/197 148/148/203 147/147/202
f 144/144/197 13/14/198 19/20/204 148/148/203
f 73/74/200 145/145/199 149/149/205 67/68/206
f 145/145/199 146/146/201 150/150/207 149/149/205
f 146/146/201 147/147/202 151/151/208 150/150/207
f 147/147/202 148/148/203 152/152/209 151/151/208
f 148/148/203 19/20/204 25/26/210 152/152/209
f 67/68/206 149/149/205 55/56/211 61/172/212
f 149/149/205 150/150/207 49/50/213 55/56/211
f 150/150/207 151/151/208 43/44/214 49/50/213
f 151/151/208 152/152/209 37/38/215 43/44/214
f 152/152/209 25/26/210 31/182/216 37/38/215
