# This file uses centimeters as units for non-parametric coordinates.

mtllib package_cone.mtl
g default
v -1.640893 -0.746325 0.000000
v -1.560582 -0.746325 -0.507064
v -1.327510 -0.746325 -0.964493
v -0.964493 -0.746325 -1.327510
v -0.507064 -0.746325 -1.560582
v -0.000000 -0.746325 -1.640893
v 0.507064 -0.746325 -1.560582
v 0.964493 -0.746325 -1.327510
v 1.327510 -0.746325 -0.964493
v 1.560582 -0.746325 -0.507064
v 1.640893 -0.746325 0.000000
v 0.000000 1.805574 -0.000000
v 1.560582 -0.746325 0.507064
v 1.327510 -0.746325 0.964493
v 0.964493 -0.746325 1.327510
v 0.507064 -0.746325 1.560582
v 0.000000 -0.746325 1.640893
v -0.507064 -0.746325 1.560582
v -0.964493 -0.746325 1.327510
v -1.327510 -0.746325 0.964493
v -1.560582 -0.746325 0.507064
v -0.000000 -0.746325 -0.000000
vt 0.290880 0.331586
vt 0.238906 0.281951
vt 0.557166 0.000719
vt 0.350479 0.371747
vt 0.415996 0.401284
vt 0.485556 0.419352
vt 0.557166 0.425432
vt 0.628775 0.419352
vt 0.698335 0.401284
vt 0.763852 0.371747
vt 0.823451 0.331586
vt 0.875426 0.281952
vt 0.290880 0.331586
vt 0.238906 0.281951
vt 0.557166 0.000719
vt 0.350479 0.371747
vt 0.415996 0.401284
vt 0.485556 0.419352
vt 0.557166 0.425432
vt 0.628775 0.419352
vt 0.698335 0.401284
vt 0.763852 0.371747
vt 0.823451 0.331586
vt 0.875426 0.281952
vt 0.467784 0.467443
vt 0.259423 0.618827
vt 0.504366 0.539240
vt 0.014479 0.698414
vt 0.051061 0.770210
vt 0.108039 0.827188
vt 0.179836 0.863770
vt 0.259423 0.876375
vt 0.339010 0.863770
vt 0.410806 0.827188
vt 0.467784 0.770210
vt 0.504366 0.698414
vt 0.516971 0.618827
vt 0.410806 0.410465
vt 0.339010 0.373883
vt 0.259423 0.361278
vt 0.179836 0.373883
vt 0.108039 0.410465
vt 0.051061 0.467443
vt 0.014479 0.539240
vt 0.001874 0.618827
vn -0.799953 0.540848 -0.259920
vn -0.841121 0.540848 0.000000
vn -0.000001 1.000000 -0.000000
vn -0.680481 0.540848 -0.494398
vn -0.494398 0.540848 -0.680481
vn -0.259921 0.540848 -0.799953
vn -0.000000 0.540848 -0.841121
vn 0.259921 0.540848 -0.799953
vn 0.494398 0.540848 -0.680481
vn 0.680481 0.540848 -0.494398
vn 0.799953 0.540848 -0.259921
vn 0.841121 0.540848 -0.000000
vn 0.799953 0.540848 0.259921
vn 0.680481 0.540848 0.494398
vn 0.494398 0.540848 0.680481
vn 0.259921 0.540848 0.799953
vn 0.000000 0.540848 0.841121
vn -0.259921 0.540848 0.799953
vn -0.494398 0.540848 0.680481
vn -0.680481 0.540848 0.494398
vn -0.799953 0.540848 0.259921
vn 0.000000 -1.000000 0.000000
vn 0.000000 -1.000000 -0.000000
vn 0.000000 -1.000000 0.000000
vn 0.000000 -1.000000 0.000000
vn 0.000000 -1.000000 0.000000
vn 0.000000 -1.000000 0.000000
vn 0.000000 -1.000000 0.000000
vn 0.000000 -1.000000 -0.000000
vn 0.000000 -1.000000 0.000000
vn 0.000000 -1.000000 0.000000
vn 0.000000 -1.000000 0.000000
vn 0.000000 -1.000000 0.000000
vn 0.000000 -1.000000 0.000000
vn 0.000000 -1.000000 -0.000000
vn 0.000000 -1.000000 -0.000000
vn 0.000000 -1.000000 -0.000000
vn 0.000000 -1.000000 0.000000
vn 0.000000 -1.000000 -0.000000
vn 0.000000 -1.000000 0.000000
vn 0.000000 -1.000000 -0.000000
vn 0.000000 -1.000000 -0.000000
s 1
g pCylinder3
usemtl unwrapChekcerShaderSG
f 2/1/1 1/2/2 12/3/3
f 3/4/4 2/1/1 12/3/3
f 4/5/5 3/4/4 12/3/3
f 5/6/6 4/5/5 12/3/3
f 6/7/7 5/6/6 12/3/3
f 7/8/8 6/7/7 12/3/3
f 8/9/9 7/8/8 12/3/3
f 9/10/10 8/9/9 12/3/3
f 10/11/11 9/10/10 12/3/3
f 11/12/12 10/11/11 12/3/3
f 13/13/13 11/14/12 12/15/3
f 14/16/14 13/13/13 12/15/3
f 15/17/15 14/16/14 12/15/3
f 16/18/16 15/17/15 12/15/3
f 17/19/17 16/18/16 12/15/3
f 18/20/18 17/19/17 12/15/3
f 19/21/19 18/20/18 12/15/3
f 20/22/20 19/21/19 12/15/3
f 21/23/21 20/22/20 12/15/3
f 1/24/2 21/23/21 12/15/3
s 2
f 14/25/22 22/26/23 13/27/24
f 2/28/25 3/29/26 22/26/23
f 22/26/23 3/29/26 4/30/27
f 22/26/23 4/30/27 5/31/28
f 22/26/23 5/31/28 6/32/29
f 22/26/23 6/32/29 7/33/30
f 22/26/23 7/33/30 8/34/31
f 22/26/23 8/34/31 9/35/32
f 22/26/23 9/35/32 10/36/33
f 22/26/23 10/36/33 11/37/34
f 22/26/23 11/37/34 13/27/24
f 15/38/35 22/26/23 14/25/22
f 16/39/36 22/26/23 15/38/35
f 17/40/37 22/26/23 16/39/36
f 18/41/38 22/26/23 17/40/37
f 19/42/39 22/26/23 18/41/38
f 20/43/40 22/26/23 19/42/39
f 21/44/41 22/26/23 20/43/40
f 1/45/42 22/26/23 21/44/41
f 2/28/25 22/26/23 1/45/42
